<?xml version="1.0" standalone="no"?>
<!DOCTYPE svg PUBLIC "-//W3C//DTD SVG 20010904//EN"
 "http://www.w3.org/TR/2001/REC-SVG-20010904/DTD/svg10.dtd">
<svg version="1.0" xmlns="http://www.w3.org/2000/svg"
 width="1084.000000pt" height="1084.000000pt" viewBox="0 0 1084.000000 1084.000000"
 preserveAspectRatio="xMidYMid meet">
<metadata>
Created by potrace 1.11, written by Peter Selinger 2001-2013
</metadata>
<g transform="translate(0.000000,1084.000000) scale(0.100000,-0.100000)"
fill="#000000" stroke="none">
<path d="M6025 10832 c-193 -36 -520 -246 -747 -478 -162 -167 -241 -296 -354
-581 -82 -209 -162 -506 -179 -668 -1 -11 -6 -51 -10 -90 -12 -110 -14 -141
-15 -280 -1 -123 5 -254 15 -320 2 -16 7 -52 10 -80 18 -143 99 -473 141 -575
38 -91 45 -189 16 -249 -21 -46 -93 -118 -162 -163 -222 -145 -930 -617 -995
-662 -44 -31 -98 -68 -120 -83 -54 -36 -348 -248 -410 -296 -27 -21 -66 -51
-85 -65 -84 -65 -182 -154 -279 -252 -317 -321 -500 -673 -548 -1055 -10 -75
-9 -311 0 -385 68 -506 443 -996 1082 -1411 141 -92 158 -102 180 -115 245
-139 369 -200 530 -259 55 -20 109 -41 120 -46 145 -61 558 -150 810 -174 33
-4 76 -8 95 -11 160 -20 637 -20 850 1 25 2 74 7 110 10 79 7 115 11 260 30
53 7 99 13 165 20 33 4 64 8 69 9 14 2 78 -135 186 -395 208 -501 270 -739
265 -1009 -3 -111 -5 -140 -18 -200 -9 -43 -43 -131 -70 -180 -30 -56 -142
-200 -155 -200 -4 0 -21 -13 -38 -30 -38 -35 -150 -108 -219 -142 -124 -62
-367 -142 -498 -163 -18 -3 -43 -8 -57 -10 -59 -12 -77 -15 -120 -21 -25 -3
-56 -8 -70 -10 -51 -11 -397 -13 -465 -3 -107 15 -232 48 -310 82 -91 40 -227
129 -214 141 2 2 24 7 49 10 41 6 118 19 180 31 14 3 41 8 60 11 19 3 77 17
129 31 317 83 485 201 524 370 52 223 -75 484 -301 620 -119 71 -299 130 -452
149 -123 16 -357 8 -463 -15 -255 -54 -501 -172 -620 -297 -64 -69 -118 -169
-132 -249 -2 -11 -7 -33 -10 -50 -7 -37 -7 -190 0 -228 59 -310 483 -619 1044
-763 74 -19 150 -37 170 -40 20 -3 61 -9 91 -15 59 -10 233 -23 315 -23 49 0
241 12 300 18 17 2 59 7 95 11 36 3 135 19 220 35 674 124 1136 379 1317 725
122 233 127 621 13 1003 -29 98 -101 297 -138 382 -228 521 -235 540 -201 540
15 0 242 83 401 146 529 211 904 507 1062 837 41 84 81 218 90 299 8 67 9 228
2 275 -19 128 -50 255 -79 323 -6 14 -11 27 -12 30 -4 20 -80 158 -111 201
-123 178 -298 341 -494 461 -83 51 -261 142 -300 153 -14 4 -29 11 -35 15 -16
12 -298 104 -312 102 -2 -1 -17 4 -35 9 -41 12 -223 50 -263 54 -16 2 -43 6
-60 9 -87 16 -212 21 -521 19 l-341 -2 -42 122 c-107 307 -123 353 -131 372
-5 11 -39 97 -76 190 -77 195 -85 254 -45 333 26 51 105 131 176 177 174 114
393 280 514 389 53 48 293 288 321 321 206 247 331 446 432 685 53 127 117
331 107 342 -1 2 2 12 8 23 6 11 14 40 17 65 3 25 8 56 11 70 16 80 19 132 20
285 0 193 -6 250 -40 385 -88 349 -273 683 -616 1110 -147 183 -208 238 -314
283 -79 33 -203 46 -290 29z m509 -926 c140 -45 231 -147 301 -336 24 -64 28
-91 29 -185 1 -118 -2 -142 -29 -220 -48 -139 -142 -306 -256 -457 -65 -86
-283 -310 -379 -391 -216 -180 -534 -390 -841 -556 l-97 -52 -17 58 c-24 84
-33 120 -50 196 -15 66 -19 88 -30 157 -3 19 -7 46 -10 60 -18 99 -23 312 -11
445 21 241 112 498 252 713 211 324 455 494 818 571 99 21 251 19 320 -3z
m-1224 -3412 c0 -8 4 -22 10 -32 10 -19 156 -466 221 -676 30 -101 39 -143 32
-155 -18 -29 -87 -67 -526 -295 -327 -170 -443 -248 -582 -396 -113 -120 -177
-229 -220 -380 -27 -95 -26 -279 3 -382 97 -346 392 -629 852 -818 75 -31 212
-68 285 -77 72 -9 286 -9 310 1 26 10 -127 116 -223 157 -129 53 -295 137
-312 158 -3 3 -24 19 -46 34 -42 28 -136 120 -174 169 -38 50 -81 149 -94 216
-41 228 102 462 401 655 24 15 45 27 48 27 3 0 22 11 43 24 83 52 320 126 455
142 29 3 56 7 60 8 17 2 18 0 237 -689 62 -192 136 -426 167 -520 30 -93 55
-174 57 -180 1 -5 14 -46 28 -90 54 -164 188 -582 188 -587 0 -3 -33 -6 -72
-7 -40 -1 -104 -4 -143 -6 -481 -24 -952 -24 -1160 0 -16 2 -55 6 -85 10 -30
3 -72 8 -92 11 -21 3 -50 6 -65 8 -255 33 -650 143 -883 246 -550 242 -889
614 -954 1045 -4 28 -10 61 -12 75 -6 37 -6 189 1 235 37 258 143 491 333 730
31 39 114 129 186 201 208 207 463 400 856 644 119 74 652 395 670 403 8 4 53
31 100 61 83 54 100 59 100 30z m1255 -1609 c91 -10 111 -13 142 -19 32 -7 67
-14 103 -21 68 -12 236 -66 325 -105 185 -78 326 -171 451 -295 123 -123 201
-250 240 -390 28 -105 22 -286 -13 -375 -3 -8 -7 -20 -8 -26 -7 -31 -83 -167
-126 -225 -42 -57 -141 -158 -206 -210 -19 -15 -114 -79 -158 -106 -64 -39
-217 -107 -306 -137 -174 -57 -151 -66 -199 82 -22 70 -58 181 -80 247 -21 66
-80 248 -130 405 -51 157 -114 353 -140 435 -27 83 -58 182 -70 220 -12 39
-25 79 -30 90 -31 71 -137 431 -129 435 12 8 252 4 334 -5z"/>
</g>
</svg>
