<?xml version="1.0" standalone="no"?>
<!DOCTYPE svg PUBLIC "-//W3C//DTD SVG 20010904//EN"
 "http://www.w3.org/TR/2001/REC-SVG-20010904/DTD/svg10.dtd">
<svg version="1.0" xmlns="http://www.w3.org/2000/svg"
 width="700.000000pt" height="700.000000pt" viewBox="0 0 700.000000 700.000000"
 preserveAspectRatio="xMidYMid meet">
<metadata>
Created by potrace 1.11, written by Peter Selinger 2001-2013
</metadata>
<g transform="translate(0.000000,700.000000) scale(0.100000,-0.100000)"
fill="#000000" stroke="none">
<path d="M3889 6938 c-139 -35 -332 -160 -490 -318 -102 -102 -109 -112 -172
-241 -55 -114 -117 -277 -131 -345 -3 -10 -11 -48 -20 -84 -25 -107 -38 -230
-39 -345 0 -75 11 -239 18 -274 27 -130 50 -225 78 -313 38 -119 41 -174 11
-215 -11 -14 -82 -64 -159 -110 -377 -228 -679 -421 -826 -527 -31 -22 -65
-47 -76 -54 -256 -174 -377 -281 -492 -432 -90 -120 -177 -305 -196 -416 -3
-21 -10 -59 -14 -84 -10 -63 -4 -192 13 -276 80 -385 420 -738 978 -1016 285
-141 582 -224 923 -256 167 -16 590 -6 735 18 58 9 97 14 196 25 l61 7 20 -33
c27 -44 140 -295 192 -427 214 -537 69 -848 -461 -992 -84 -23 -105 -28 -158
-36 -19 -3 -46 -7 -60 -10 -85 -16 -132 -19 -280 -18 -139 0 -177 4 -244 22
-93 27 -177 66 -206 97 -26 28 -33 25 130 55 156 30 234 52 313 90 129 62 184
148 166 260 -38 244 -281 398 -639 406 -191 4 -283 -17 -466 -106 -182 -89
-247 -181 -248 -350 0 -73 4 -93 28 -143 88 -182 386 -357 743 -436 161 -36
345 -46 513 -28 126 14 157 18 181 23 13 3 60 11 104 19 187 34 449 126 570
199 178 107 259 201 311 357 22 69 28 105 30 199 4 190 -21 277 -206 705 -45
105 -84 195 -87 202 -3 7 12 16 39 23 159 40 460 165 594 245 308 187 449 394
447 660 -1 203 -89 407 -241 561 -46 47 -171 145 -217 170 -11 6 -40 22 -65
36 -124 68 -374 152 -515 173 -22 3 -78 12 -125 20 -60 9 -157 13 -332 11
l-246 -2 -28 70 c-14 39 -47 123 -71 186 -24 63 -48 124 -53 135 -101 223 -90
249 185 441 210 146 410 322 507 445 14 19 41 52 58 74 119 150 220 363 266
565 101 437 -39 808 -487 1292 -14 15 -51 43 -83 62 -86 51 -169 62 -277 34z
m371 -563 c64 -14 110 -52 153 -125 60 -103 79 -226 50 -324 -25 -86 -130
-263 -194 -329 -8 -8 -32 -34 -55 -58 -35 -39 -153 -145 -223 -202 -45 -36
-208 -146 -296 -199 -96 -58 -292 -168 -300 -168 -7 0 -47 141 -63 225 -16 86
-22 331 -9 406 38 231 211 514 392 640 146 102 407 166 545 134z m-766 -2351
c30 -87 73 -212 96 -277 35 -100 39 -121 28 -134 -7 -9 -92 -54 -188 -100
-363 -174 -449 -224 -553 -326 -72 -71 -114 -129 -145 -204 -61 -143 -41 -306
55 -450 35 -54 168 -193 184 -193 4 0 14 -7 23 -15 27 -27 159 -100 247 -137
137 -57 255 -77 414 -69 35 1 37 3 20 12 -11 6 -37 23 -59 37 -21 15 -78 43
-127 63 -117 48 -189 92 -260 157 -145 133 -160 304 -41 451 58 70 65 76 188
160 94 64 174 102 241 116 73 15 186 35 189 33 1 -2 13 -37 27 -78 189 -560
285 -830 374 -1055 41 -104 77 -193 79 -197 3 -4 -4 -6 -13 -6 -10 1 -83 -3
-163 -7 -80 -5 -253 -8 -385 -8 -369 -1 -556 18 -823 84 -453 111 -772 312
-902 569 -136 269 -109 517 87 790 164 229 441 444 913 708 25 14 56 32 70 42
14 9 32 19 40 23 8 3 83 46 165 95 83 49 153 86 158 82 4 -3 31 -78 61 -166z
m820 -879 c426 -44 788 -311 811 -600 20 -243 -198 -489 -535 -604 -122 -41
-119 -41 -129 -23 -4 9 -47 134 -96 277 -48 143 -102 301 -120 350 -85 232
-215 593 -215 598 0 13 162 15 284 2z"/>
</g>
</svg>
