<?xml version="1.0" encoding="utf-8"?>
<!-- Generator: Adobe Illustrator 20.0.0, SVG Export Plug-In . SVG Version: 6.00 Build 0)  -->
<svg version="1.2" baseProfile="tiny" id="Layer_1" xmlns="http://www.w3.org/2000/svg" xmlns:xlink="http://www.w3.org/1999/xlink"
	 x="0px" y="0px" viewBox="0 0 30 30" overflow="scroll" xml:space="preserve">
<rect x="-0.2" y="-0.2" fill="#333333" width="30.2" height="30.2"/>
<g>
	<g>
		<image width="45" height="43" xlink:href="9F48E34B.png"  transform="matrix(0.75 0 0 0.75 -2.1 -2)">
		</image>
	</g>
</g>
<path fill="#FFFFFF" d="M15.9,30c0-0.1,0-0.3,0-0.4c0-3.5,0-7,0-10.5c0-0.1,0-0.2,0-0.4c-1.3,0-2.5,0-3.7,0c0-1.6,0-3.1,0-4.7
	c1.2,0,2.5,0,3.7,0c0-0.2,0-0.4,0-0.6c0-0.9,0-1.8,0-2.7C16,9,16.5,7.4,17.7,6.1c1-0.9,2.1-1.4,3.5-1.4c1.3,0,2.5,0,3.8,0
	c0.1,0,0.2,0,0.2,0c0,1.6,0,3.1,0,4.7c-0.1,0-0.2,0-0.3,0c-0.7,0-1.4,0-2.2,0.1c-1.2,0.1-2,0.9-2.2,2.1c0,0.2,0,0.4,0,0.6
	c0,0.6,0,1.2,0,1.8c1.6,0,3.1,0,4.7,0c-0.1,0.5-0.2,0.9-0.3,1.4c-0.2,1-0.4,2.1-0.6,3.1c0,0.2-0.1,0.3-0.3,0.3c-1,0-2.1,0-3.1,0
	c-0.1,0-0.2,0-0.4,0c0,0.1,0,0.3,0,0.4c0,3.5,0,7,0,10.5c0,0.1,0,0.3,0,0.4C19,30,17.4,30,15.9,30z"/>
</svg>
