<?xml version="1.0" encoding="utf-8"?>
<!-- Generator: Adobe Illustrator 20.0.0, SVG Export Plug-In . SVG Version: 6.00 Build 0)  -->
<svg version="1.1" id="Layer_1" xmlns="http://www.w3.org/2000/svg" xmlns:xlink="http://www.w3.org/1999/xlink" x="0px" y="0px"
	 viewBox="0 0 721.4 267" style="enable-background:new 0 0 721.4 267;" xml:space="preserve">
<style type="text/css">
	.st0{fill:#FFFFFF;}
	.st1{fill:none;stroke:#FFFFFF;stroke-width:3;stroke-miterlimit:10;}
</style>
<path class="st0" d="M664.9,254.1c3.1,4.8,8.5,6.6,15.1,5.2c11.5-2.4,17.6-9.9,18-21.6c0.3-10-2.4-19.4-4.8-28.9
	c-0.5-2-1.1-4-1.7-6.2c-2.5,0.5-4.9,1-7.3,1.4c-13.6,2.2-25.9-0.9-36-10.5c-13.4-12.7-21.1-27.9-19.7-46.8
	c0.9-12.4,5.5-23.4,13.2-32.9c7.2-8.8,15-17,22.7-25.3c2.6-2.8,3.2-5.3,2.3-9.2c-4-18.2-3.4-36.4,1.8-54.3
	c1.9-6.6,5.6-12.3,10.4-17.2c4.9-4.9,8.9-4.2,12,1.9c6.5,12.7,11.5,25.7,11,40.2c-0.7,19.4-7.8,36.3-21,50.5
	c-3,3.2-3.7,6.1-2.6,10.2c1.6,6.1,2.8,12.3,4.2,18.8c3.8,0,7.7-0.6,11.3,0.1c13.3,2.4,23.2,13.3,25.7,27.6
	c3.1,18.2-3.4,31.9-19.5,41.1c-1,0.6-2,1.2-3.1,1.8c2,8.1,4.5,16,5.7,24.2c0.9,6.1,1.2,12.7,0.2,18.8c-2.1,12.5-13.7,20.5-27.6,21.9
	c-10.6,1-25.3-9-25.5-22c-0.1-5.4,0.7-10.6,5-14.3c4.4-3.8,9.6-5.6,15.2-3.4c5.7,2.3,8.3,7.2,9,13.1c0.9,7.3-1.9,11.6-8.8,14.1
	C668.4,253.1,666.7,253.5,664.9,254.1z M681,148c-4.2,0.7-7.1,2.6-9.6,5.3c-8.8,9.6-7.1,22.6,3.9,29.4c1.2,0.8,2.1,2.2,3.4,3.6
	c-3.8,0.8-6.6,0-10-2.5c-12.4-8.9-15.8-27.2-6.8-39.6c3.5-4.8,8.8-8.3,13.2-12.4c0.7-0.7,1.9-1.7,1.8-2.3
	c-1.2-6.8-2.6-13.6-4.1-21.1c-9.5,9.8-19.5,18-26.1,29.2c-6.1,10.5-8.5,21.7-5.9,33.7c3.5,15.8,17,26.5,34.5,27.3
	c5,0.2,10.1-0.4,15.6-0.6C687.4,180.7,684.2,164.4,681,148z M672.1,79.9c11.2-9.6,19.5-20.1,23-33.9c1.3-5.1,1-10.4-1.1-15.4
	c-1.6-3.8-4.4-5-8.2-3.5c-4.5,1.7-7.6,5.1-9.7,9.3C669,50,669.3,64.4,672.1,79.9z M695.4,194.9c10.6-4.1,16.8-17.1,14.1-28.8
	c-2.7-11.5-12.5-19.5-23.4-18.5C689.2,163.4,692.3,179.1,695.4,194.9z"/>
<path class="st0" d="M505.6,162.9c-5.1,1.3-9.6,2.4-13.9,3.8c-1.3,0.4-2.5,1.9-3.4,3.1c-11.6,15.5-25.8,28-41.9,38.5
	c-10.3,6.8-21.8,9.2-34,7.3c-12.8-2-21.7-9-25.8-22.3c-3.7,2.6-6.9,5.3-10.6,7.3c-6,3.4-12.2,6.3-18.2,9.7c-1.9,1.1-3.8,2.7-4.8,4.6
	c-5.8,10.1-10.7,20.8-17.1,30.5c-6.6,10-15.9,17.2-28.5,18.5c-3.9,0.4-8.1,0.3-11.9-0.7c-12.4-3.2-17.4-17.5-9.4-28.5
	c3.6-5,9-9.2,14.5-12.2c7.1-3.9,15-6.4,22.6-9.2c3.8-1.3,5.8-3.3,6.3-7.3c0.5-3.8,1.6-7.5,2.7-12.7c-3.7,3.3-6.3,6-9.2,8.2
	c-4.7,3.5-9.4,7.5-14.7,9.8c-10.7,4.7-21.1,0.1-25.9-10.5c-1-2.2-1.6-4.5-2.7-7.6c-4.2,3.3-8.3,6.4-12.3,9.6
	c-7.3,5.8-14.8,11.3-24.3,12.9c-13.9,2.4-21.9-4.3-21.3-18.3c0.4-10.7,4.1-20.6,8.6-30.3c2.6-5.6,5.8-11.1,4.2-19.1
	c-3.7,2-7.4,3.2-10.1,5.6c-6.4,5.5-12.4,11.6-18.5,17.5c-6,5.7-6.6,13.3-7,20.8c-0.3,5.1-0.1,10.3-0.4,15.4c-0.1,1.3-1,3.4-2,3.7
	c-7.3,1.8-14.6,3.3-22.6,5.1c-0.5-7.5-1-14.3-1.6-22c-4,3.3-7.6,6.4-11.3,9.3c-4.2,3.2-8.3,6.7-12.9,9.2c-14.3,7.8-27.3,0.4-28.5-16
	c-0.8-10.6,1-20.8,4.3-30.7c3.2-9.6,6.8-19,10.3-28.4c0.4-1,1.5-2.4,2.4-2.6c8.9-1.8,17.8-3.3,27.8-5.1c-3.4,9.5-6.7,18-9.5,26.6
	c-3,9.3-5.5,18.7-8,28.1c-0.5,1.8-0.4,3.9,0,5.7c0.9,3.5,2.9,5.4,7,4.5c8.8-1.8,18.4-11.7,21-20.2c3.9-12.8,8.9-25.3,13.5-37.9
	c0.4-1.1,1.5-2.4,2.5-2.6c8.1-1.6,16.3-2.9,25-4.4c-3.5,10.3-6.8,19.9-10,29.5c0.4,0.2,0.7,0.5,1.1,0.7c4.5-4.2,9.1-8.5,13.6-12.7
	c7.8-7.3,15.6-14.3,26.5-16.6c12-2.5,19.2,3.2,17.2,15.2c-1.7,10.1-5.8,19.8-8.8,29.8c-1.9,6.2-4.2,12.4-5.2,18.7
	c-0.7,4.6,1.5,6.1,5.9,4.1c5.4-2.5,10.5-5.9,15.2-9.6c5-4,7.9-9.3,9.8-15.8c5.6-19.1,17.3-33.5,36.5-40.6c10.7-3.9,21-3.5,30.6,3.7
	c1.4,1.1,4.2,1.2,6,0.6c5.9-1.9,11.6-4.4,17.8-6.8c-5.3,24-10.4,47.3-15.7,71.5c9.1-2.6,15.5-7.4,21.5-12.8
	c4.6-4.1,7.5-8.7,9.2-15.1c5.3-20.4,17-35.9,38.3-41.7c5.8-1.6,12.5-1.6,18.5-0.6c15.7,2.7,20.8,18.1,9.6,29.5
	c-5,5.1-11.8,8.7-18.4,11.8c-7.3,3.5-15.3,5.6-22.9,8.3c0.3,9.6,8.6,17.7,19.1,18.6c7.7,0.7,15-1.1,20.7-6
	c9.4-8.1,18.3-16.9,28-26.1c-9.8-4.8-10.7-12-8.2-20.3c2.6-8.8,7.9-14.9,17.4-16.6c8.5-1.6,13.2,2.9,11.3,11.4
	c-1,4.3-2.7,8.5-4.3,13.1c6.7-0.4,12.2-2.7,16.7-6.9c3.7-3.5,7.6-7.2,9.9-11.6c3.1-5.8,7.3-6.9,13.4-5.8c-0.3,1.2-0.5,2.4-1,3.5
	c-5,12.7-10.1,25.3-14.9,38c-1.7,4.4-3.2,9.2-3.5,13.8c-0.6,9.5,6.4,13.8,13.9,8.2c9-6.6,17.3-14.3,25.2-22.2
	c10-10.1,17.7-21.9,23.9-34.7c0.8-1.6,2.7-3.2,4.3-3.5c7.1-1.5,14.3-2.5,23.1-3.9c-6.2,12-1.3,20.4,4.6,28.8
	c7.7,11.1,6.9,22.3-0.8,33c-9.4,12.9-21.5,21.9-37.6,24.6c-7,1.2-13.8-0.1-19.9-3.7c-5.4-3.2-6.5-6.9-2.9-11.9
	c2.4-3.4,5.3-6.5,8.5-9.1c4-3.3,6.9-2.3,9.2,2.3c0.9,1.7,1.6,3.5,2.4,5.3c3,6.5,7.4,8.2,14,5.4c11.6-4.8,15.5-16.7,8.9-27.3
	c-1.6-2.6-3.7-4.8-5.4-7.4c-3-4.5-6-9-9-13.6c-4.4,5.5-9,11.6-13.9,17.4c-12.5,14.7-25.7,28.7-43,38c-3.8,2-8,3.5-12.1,4.2
	c-12.4,2.2-21.2-6.5-19.8-19.1c1.1-10.5,6.1-19.5,11.4-28.3C503.2,166.7,504.2,165.1,505.6,162.9z M306.1,177.7
	c0,0.8-0.1,1.6-0.1,2.4c0,7.9,2.4,12.7,7.7,14.7c4.9,1.9,10.5-0.4,15.5-6.1c0.4-0.5,0.8-1,1.2-1.5c6.9-9,10-19.6,11.8-30.6
	c0.6-3.7,0.5-7.7,0-11.4c-0.7-4.6-4-7.3-8.5-6.5c-4.1,0.8-8.6,2.1-11.7,4.6C311,152,307.3,164.4,306.1,177.7z M325.5,220.3
	c-9.3,4.3-17.5,7.3-25,11.8c-3.6,2.2-6.5,6.5-8.3,10.5c-2.3,5.3-0.2,10.4,4,13c4.1,2.6,10.4,2.1,14.1-1.8
	C319,244.8,322.1,233.3,325.5,220.3z M411.3,173.2c8.2-2.4,15.6-5.1,21.4-10.9c3.8-3.8,5.7-8.4,5.7-13.8c0-8.7-6.3-12.4-13.9-8
	c-1.8,1-3.5,2.3-4.8,4C413.5,152.8,411.2,162.4,411.3,173.2z M80.1,73.7c10.7-0.2,20.7,2.2,29.5,8.6c7.8,5.6,8.3,9.6,2.4,17.1
	c-1.9,2.4-3.6,5-5.9,7c-1.8,1.6-4.2,2.4-6.3,3.5c-1-2-2.2-4-3.1-6.1c-2-4.8-3.1-10.2-6-14.3c-6.1-8.7-19.4-10.4-28-4.5
	c-9.1,6.2-12,17.6-5.6,27c4.3,6.4,10.1,12,15.7,17.4c5.6,5.5,12.3,9.9,17.8,15.4c18.4,18.6,17.1,40.6-3.1,57.4
	c-19.4,16.1-51.1,18.5-72.2,5.5c-1-0.6-1.9-1.2-2.8-1.9C3,199,2.3,195.8,8.7,186c2.1-3.2,3.9-6.7,6.5-9.5c1.5-1.6,4.5-3.4,6.3-2.9
	s3.3,3.5,4.1,5.7c1,3.2,1,6.6,1.8,9.9c3.1,12.9,10.9,19,24.2,18.6c10.6-0.3,19.8-4,25.5-13.6c4.8-8.1,3-18.1-5.3-26.2
	c-8.3-8-17.3-15.2-25.6-23.2c-8.2-7.9-13.6-17.4-13.8-29.2C31.8,93.7,48.5,76.3,72,74.1C74.7,73.9,77.4,73.9,80.1,73.7z M172.3,92.3
	c0.7,8.5-1.4,15.5-8.6,19.9c-8.9,5.4-17.7,4-26.4-1.3c3.2-6.6,6.4-12.9,9.7-19.7C155,95.6,163.4,96.2,172.3,92.3z"/>
<path class="st0" d="M229,15.9c-1-3.8-2.8-8-7.9-8c-4.4,0-6.5,3.2-6.5,6.5c0,4.2,2.8,6.2,7.6,8.7c5,2.5,10.4,5.4,10.4,12
	c0,6.4-5.5,11.5-13.6,11.5c-2.4,0-4.4-0.4-5.9-0.9c-1.6-0.5-2.5-1-3.1-1.3c-0.5-1.3-1.3-6.4-1.6-9.5l1.8-0.5c1,3.7,3.8,9.9,10,9.9
	c4.4,0,7-2.8,7-7c0-4.3-3.2-6.4-7.6-8.8c-4.3-2.3-10-5.3-10-11.9c0-5.9,4.7-10.9,12.6-10.9c2.9,0,5.6,0.8,7.7,1.4
	c0.2,2.2,0.6,4.6,1.1,8.4L229,15.9z M254.4,6.7c4.3,0,7.7,0.7,10.1,2.5s4,4.6,4,8.6c0,7.8-5.9,11.6-11.8,12.3
	c-0.9,0.1-2,0.1-2.6,0.1l-4.4-1.1v9.2c0,5,0.5,5.4,5.8,5.8v1.7h-16.6v-1.7c4.7-0.4,5.2-0.8,5.2-5.8v-24c0-5.3-0.5-5.5-4.9-5.9V6.7
	H254.4z M249.7,26.9c0.7,0.4,2.3,0.7,4.1,0.7c3.6,0,8.3-2,8.3-9.7c0-6.5-4-9.2-8.8-9.2c-1.6,0-2.7,0.3-3.1,0.7
	c-0.4,0.4-0.6,1.1-0.6,2.6v14.9H249.7z M310.6,46.2c-0.7,0-1.4,0-2-0.1c-5.1-0.3-7.6-1.7-10.2-5.5c-2-2.9-4.1-6.5-5.8-9.5
	c-1.1-1.7-2-2.5-5-2.5h-1.7V38c0,5.1,0.5,5.5,5.3,5.9v1.7H275v-1.7c4.8-0.4,5.3-0.8,5.3-5.9V14.1c0-5-0.5-5.3-5.1-5.7V6.7h15.2
	c4.6,0,7.5,0.5,9.8,2c2.4,1.6,4,4.3,4,7.9c0,5.2-3.2,8.3-7.6,10.3c1,1.9,3.5,5.9,5.3,8.6c2.2,3.2,3.4,4.8,4.8,6.4
	c1.6,1.7,2.9,2.3,4.2,2.8L310.6,46.2z M288.5,26.7c2.9,0,4.9-0.5,6.4-1.7c2.2-1.8,3.2-4.2,3.2-7.4c0-6.5-4.1-8.9-8.5-8.9
	c-1.7,0-2.7,0.2-3.2,0.6c-0.4,0.4-0.6,1-0.6,2.6v14.8H288.5z M315,45.7V44c4.9-0.4,5.3-0.7,5.3-5.8v-24c0-5.1-0.5-5.5-5.3-5.8V6.7
	h16.3v1.7c-4.9,0.4-5.3,0.7-5.3,5.8v23.9c0,5.1,0.5,5.5,5.3,5.8v1.7H315V45.7z M379.2,8.4c-3.4,0.2-4.7,1-5,3.6
	c-0.2,1.9-0.4,4.6-0.4,10.1v24.2h-2l-25.4-31.2h-0.1v14.8c0,5.5,0.2,8.3,0.4,10.1c0.3,3,1.6,3.8,5.8,4v1.7h-14.3V44
	c3.4-0.2,4.9-1,5.2-3.9c0.2-1.9,0.4-4.7,0.4-10.2V16.8c0-4.3-0.1-4.7-1.2-6.1c-1.2-1.5-2.5-2-5.3-2.2V6.7h9.2l24.7,29.4h0.2v-14
	c0-5.5-0.2-8.2-0.4-10c-0.3-2.7-1.7-3.5-5.9-3.7V6.7h14.2v1.7H379.2z M424.2,29.2c-3.5,0.5-3.8,0.8-3.8,4.4v5c0,2.1,0.1,4.1,0.4,5.7
	c-3.7,0.8-8.7,2.2-13.5,2.2c-13.3,0-22.1-8.2-22.1-20.1c0-13.9,11.2-20.7,23-20.7c5,0,9.6,1.3,11.6,1.7c0.2,2.1,0.5,5.4,1,9.4
	l-1.8,0.4c-1.4-7.3-6-9.4-11.7-9.4c-8.8,0-15.4,6.7-15.4,17.8c0,8.8,5,18.7,16.2,18.7c1.9,0,3.7-0.4,4.9-1c1.1-0.6,1.8-1.4,1.8-3.8
	v-5.2c0-4.3-0.4-4.7-6.3-5.2v-1.7h15.7L424.2,29.2L424.2,29.2z M456,15.8c-0.5-2.3-1-3.7-1.8-4.9c-1-1.6-2.4-2.1-6.7-2.1h-4.3
	c-1.9,0-2,0.2-2,1.9v14.1h5.9c5.4,0,5.8-0.5,6.5-4.4h1.8V32h-1.8c-0.7-4.1-1.1-4.7-6.5-4.7h-5.9v10.6c0,5.3,0.5,5.6,5.9,6v1.7h-16.7
	v-1.7c4.7-0.4,5.2-0.7,5.2-6V14.4c0-5.2-0.5-5.6-5-5.9V6.7h26.7c0.1,1.9,0.4,5.9,0.6,8.9L456,15.8z M464.5,45.7V44
	c4.9-0.4,5.3-0.7,5.3-5.8v-24c0-5.1-0.5-5.5-5.3-5.8V6.7h16.3v1.7c-4.9,0.4-5.3,0.7-5.3,5.8v23.9c0,5.1,0.5,5.5,5.3,5.8v1.7h-16.3
	V45.7z M518.5,36.1c-0.4,2.1-1.6,7.7-2.1,9.5h-29.2v-1.7c5.4-0.4,5.9-0.8,5.9-5.8V14.4c0-5.4-0.5-5.6-5.1-6V6.7h27
	c0.1,1.4,0.4,5.5,0.5,8.7l-1.8,0.3c-0.5-2.5-1.2-3.9-2-5.2s-2.5-1.7-6.6-1.7h-4.3c-1.9,0-2,0.2-2,2v13.5h5.4c5.3,0,5.7-0.5,6.5-4.5
	h1.8v11.6h-1.8c-0.8-4.3-1.3-4.6-6.5-4.6h-5.4v11.1c0,2.9,0.4,4.2,1.4,4.9c1.1,0.7,3.2,0.7,6.1,0.7c4.3,0,6.1-0.5,7.4-2
	c1-1.3,2.2-3.3,3.1-5.7L518.5,36.1z M553.9,36.1c-0.4,2-1.6,7.8-2.2,9.6h-27.5V44c5.1-0.4,5.6-0.8,5.6-5.9V14.2
	c0-5.1-0.4-5.5-5.2-5.8V6.7h16.1v1.7c-4.7,0.4-5.3,0.7-5.3,5.8v23.6c0,3.2,0.3,4.3,1.4,4.9c1.2,0.7,3.1,0.7,5.5,0.7
	c3.2,0,5.2-0.3,6.6-1.9c1.1-1.2,2.2-3.1,3.2-5.9L553.9,36.1z M576.6,6.7c7.6,0,13.3,1.6,17,5.1c2.9,2.9,5.1,7.3,5.1,12.9
	c0,7.2-2.8,12.5-7.4,16c-4.5,3.4-10.6,5-17.9,5H559V44c5-0.4,5.6-0.7,5.6-5.8v-24c0-5.2-0.5-5.4-5.1-5.8V6.7H576.6z M570.2,37.7
	c0,4.5,1.8,5.7,6.1,5.7c10.7,0,16-8,16-17.8c0-6.1-2.2-11.3-6.7-14.1c-2.6-1.9-6.1-2.7-10.1-2.7c-2.5,0-4,0.3-4.5,0.7
	c-0.6,0.5-0.8,1.2-0.8,3.4V37.7z M238.5,109.7V108c4.4-0.5,4.6-0.8,4.5-7.1l-0.2-24.2h-0.2l-13.1,32.6h-1.1l-12.1-31.8h-0.1
	l-0.8,16.9c-0.2,4.9-0.2,7.6-0.1,9.9c0.1,2.8,1.4,3.3,5,3.7v1.8h-12.8V108c3.2-0.4,4.2-1.1,4.6-3.5c0.3-2,0.7-4.8,1.1-11l0.8-12.4
	c0.5-7.6,0.2-8-4.8-8.5v-1.7h9.4l12.1,29.3L243,70.7h9.6v1.7c-4.8,0.5-5.1,0.7-4.9,6.7l0.5,21.8c0.2,6.2,0.3,6.6,5,7.1v1.7
	C253.2,109.7,238.5,109.7,238.5,109.7z M259.4,109.7V108c4.9-0.4,5.3-0.7,5.3-5.8v-24c0-5.1-0.5-5.5-5.3-5.8v-1.7h16.3v1.7
	c-4.9,0.4-5.3,0.7-5.3,5.8v23.9c0,5.1,0.5,5.5,5.3,5.8v1.7L259.4,109.7L259.4,109.7z M297.4,70.7c7.6,0,13.3,1.6,17,5.1
	c2.9,2.9,5.1,7.3,5.1,12.9c0,7.2-2.8,12.5-7.4,16c-4.5,3.4-10.6,5-17.9,5h-14.4V108c5-0.4,5.6-0.7,5.6-5.8v-24
	c0-5.2-0.5-5.4-5.1-5.8v-1.8h17.1V70.7z M291,101.7c0,4.5,1.8,5.7,6.1,5.7c10.7,0,16-8,16-17.8c0-6.1-2.2-11.3-6.7-14.1
	c-2.6-1.9-6.1-2.7-10.1-2.7c-2.5,0-4,0.3-4.5,0.7c-0.6,0.5-0.8,1.2-0.8,3.4V101.7z M338.1,97.9h-13.9l0.8-3.5h14L338.1,97.9z
	 M367.3,109.7V108c3.8-0.5,4.3-1,3.4-3.4c-0.7-2.2-1.9-5.3-3.1-8.8H355c-0.9,2.5-1.7,5-2.6,7.4c-1.2,3.7-0.7,4.3,3.8,4.7v1.7h-13.1
	v-1.7c3.8-0.5,4.7-1,6.7-6.2l12.4-31.4l2.1-0.6c3.7,10.3,7.7,21.6,11.6,32c1.9,5.2,2.7,5.8,6.6,6.2v1.7h-15.2V109.7z M361.6,78.2
	h-0.2c-1.9,5-3.7,10-5.5,14.9h10.7L361.6,78.2z M416.9,109.7V108c4.6-0.5,4.7-0.8,4.7-7.1l-0.2-24.2h-0.2l-13.5,32.6h-1.2L394,77.5
	h-0.1L393,94.3c-0.2,4.9-0.2,7.6-0.1,9.9c0.1,2.8,1.4,3.3,5.2,3.7v1.8h-13.3v-1.8c3.3-0.4,4.3-1.1,4.7-3.5c0.3-2,0.7-4.8,1.1-11
	l0.8-12.4c0.5-7.6,0.2-8-4.9-8.5v-1.7h9.8l12.5,29.3l12.7-29.3h9.9v1.7c-4.9,0.5-5.2,0.7-5.1,6.7l0.5,21.8c0.2,6.2,0.3,6.6,5.2,7.1
	v1.7L416.9,109.7L416.9,109.7z M468.6,100.1c-0.4,2.1-1.6,7.7-2.1,9.5h-29.2v-1.7c5.4-0.4,5.9-0.8,5.9-5.8V78.4c0-5.4-0.5-5.6-5.1-6
	v-1.7h27c0.1,1.4,0.4,5.5,0.5,8.7l-1.8,0.3c-0.5-2.5-1.2-3.9-2-5.2c-0.8-1.3-2.5-1.7-6.6-1.7h-4.3c-1.9,0-2,0.2-2,2v13.5h5.4
	c5.3,0,5.7-0.5,6.5-4.5h1.8v11.6h-1.8c-0.8-4.3-1.3-4.6-6.5-4.6h-5.4v11.1c0,2.9,0.4,4.2,1.4,4.9c1.1,0.7,3.2,0.7,6.1,0.7
	c4.3,0,6.1-0.5,7.4-2c1-1.3,2.2-3.3,3.1-5.7L468.6,100.1z M507.5,110.2c-0.7,0-1.4,0-2-0.1c-5.1-0.3-7.6-1.7-10.2-5.5
	c-2-2.9-4.1-6.5-5.8-9.5c-1.1-1.7-2-2.5-5-2.5h-1.7v9.4c0,5.1,0.5,5.5,5.3,5.9v1.7H472v-1.7c4.8-0.4,5.3-0.8,5.3-5.9V78.1
	c0-5-0.5-5.3-5.1-5.7v-1.7h15.2c4.6,0,7.5,0.5,9.8,2c2.4,1.6,4,4.3,4,7.9c0,5.2-3.2,8.3-7.6,10.3c1,1.9,3.5,5.9,5.3,8.6
	c2.2,3.2,3.4,4.8,4.8,6.4c1.6,1.7,2.9,2.3,4.2,2.8L507.5,110.2z M485.4,90.7c2.9,0,4.9-0.5,6.4-1.7c2.2-1.8,3.2-4.2,3.2-7.4
	c0-6.5-4.1-8.9-8.5-8.9c-1.7,0-2.7,0.2-3.2,0.6c-0.4,0.4-0.6,1-0.6,2.6v14.8H485.4z M509.3,109.7V108c4.9-0.4,5.3-0.7,5.3-5.8v-24
	c0-5.1-0.5-5.5-5.3-5.8v-1.7h16.3v1.7c-4.9,0.4-5.3,0.7-5.3,5.8v23.9c0,5.1,0.5,5.5,5.3,5.8v1.7L509.3,109.7L509.3,109.7z
	 M567.7,99.7c-0.8,2.8-2.3,7.3-3.4,9.3c-1.7,0.4-6.8,1.6-11.1,1.6c-15.1,0-21.7-10.3-21.7-19.9c0-12.6,9.7-20.9,23.2-20.9
	c4.9,0,9,1.3,10.7,1.6c0.5,3.4,0.8,5.9,1.2,9.2l-1.9,0.4c-1.6-6.5-5.4-9-11.5-9c-9.8,0-15.1,8.4-15.1,17.5
	c0,11.2,6.5,18.8,15.4,18.8c5.9,0,9.2-3.3,12.3-9.2L567.7,99.7z M591.2,109.7V108c3.8-0.5,4.3-1,3.4-3.4c-0.7-2.2-1.9-5.3-3.1-8.8
	h-12.6c-0.9,2.5-1.7,5-2.6,7.4c-1.2,3.7-0.7,4.3,3.8,4.7v1.7H567v-1.7c3.8-0.5,4.7-1,6.7-6.2l12.4-31.4l2.1-0.6
	c3.7,10.3,7.7,21.6,11.6,32c1.9,5.2,2.7,5.8,6.6,6.2v1.7h-15.2V109.7z M585.5,78.2h-0.2c-1.9,5-3.7,10-5.5,14.9h10.7L585.5,78.2z"/>
<line class="st1" x1="205" y1="57.1" x2="601" y2="57.1"/>
</svg>
