<?xml version="1.0" encoding="utf-8"?>
<!-- Generator: Adobe Illustrator 20.1.0, SVG Export Plug-In . SVG Version: 6.00 Build 0)  -->
<svg version="1.1" id="Layer_1" xmlns="http://www.w3.org/2000/svg" xmlns:xlink="http://www.w3.org/1999/xlink" x="0px" y="0px"
	 viewBox="0 0 32 32" style="enable-background:new 0 0 32 32;" xml:space="preserve">
<path d="M14,30.6c0.6,0.6,1.8,0.8,3.2,0.6c2.4-0.3,3.7-1.2,3.8-2.6c0.1-1.2-0.5-2.4-1-3.5c-0.1-0.2-0.2-0.5-0.4-0.8
	c-0.5,0.1-1,0.1-1.5,0.2c-2.9,0.3-5.4-0.1-7.6-1.3c-2.8-1.5-4.4-3.4-4.2-5.7c0.2-1.5,1.1-2.9,2.8-4c1.5-1.1,3.1-2.1,4.8-3.1
	c0.6-0.3,0.7-0.6,0.5-1.1c-0.8-2.2-0.7-4.4,0.4-6.6c0.4-0.8,1.2-1.5,2.2-2.1c1-0.6,1.9-0.5,2.5,0.2c1.4,1.5,2.4,3.1,2.3,4.9
	c-0.2,2.4-1.6,4.4-4.4,6.2c-0.6,0.4-0.8,0.8-0.6,1.2c0.3,0.7,0.6,1.5,0.9,2.3c0.8,0,1.6-0.1,2.4,0c2.8,0.3,4.9,1.6,5.4,3.4
	c0.7,2.2-0.7,3.9-4.1,5c-0.2,0.1-0.4,0.1-0.7,0.2c0.4,1,0.9,2,1.2,2.9c0.2,0.7,0.3,1.5,0,2.3c-0.4,1.5-2.9,2.5-5.8,2.7
	c-2.2,0.1-5.3-1.1-5.4-2.7c0-0.7,0.2-1.3,1.1-1.7c0.9-0.5,2-0.7,3.2-0.4c1.2,0.3,1.7,0.9,1.9,1.6c0.2,0.9-0.4,1.4-1.9,1.7
	C14.8,30.4,14.4,30.5,14,30.6z M17.4,17.6c-0.9,0.1-1.5,0.3-2,0.7c-1.9,1.2-1.5,2.8,0.8,3.6c0.3,0.1,0.4,0.3,0.7,0.4
	c-0.8,0.1-1.4,0-2.1-0.3c-2.6-1.1-3.3-3.3-1.4-4.8c0.7-0.6,1.8-1,2.8-1.5c0.2-0.1,0.4-0.2,0.4-0.3c-0.3-0.8-0.6-1.7-0.9-2.6
	c-2,1.2-4.1,2.2-5.5,3.6c-1.3,1.3-1.8,2.7-1.2,4.1c0.7,1.9,3.6,3.2,7.3,3.3c1.1,0,2.1,0,3.3-0.1C18.7,21.6,18.1,19.6,17.4,17.6z
	 M15.5,9.3c2.3-1.2,4.1-2.5,4.8-4.1c0.3-0.6,0.2-1.3-0.2-1.9c-0.3-0.5-0.9-0.6-1.7-0.4c-1,0.2-1.6,0.6-2,1.1
	C14.9,5.7,14.9,7.4,15.5,9.3z M20.4,23.3c2.2-0.5,3.5-2.1,2.9-3.5c-0.6-1.4-2.6-2.4-4.9-2.2C19.1,19.5,19.8,21.4,20.4,23.3z"/>
</svg>
